<?xml version="1.0" encoding="utf-8"?>
<!-- Generator: Adobe Illustrator 16.0.4, SVG Export Plug-In . SVG Version: 6.00 Build 0)  -->
<!DOCTYPE svg PUBLIC "-//W3C//DTD SVG 1.1//EN" "http://www.w3.org/Graphics/SVG/1.1/DTD/svg11.dtd">
<svg version="1.1" id="Layer_1" xmlns="http://www.w3.org/2000/svg" xmlns:xlink="http://www.w3.org/1999/xlink" x="0px" y="0px"
	 width="40px" height="40px" viewBox="0 0 40 40" enable-background="new 0 0 40 40" xml:space="preserve">
<path fill="#FFFFFF" d="M20,1.863c-10.238,0-18.538,8.326-18.538,18.598c0,8.214,5.311,15.186,12.68,17.644
	c0.926,0.172,1.264-0.403,1.264-0.896c0-0.442-0.016-1.609-0.024-3.163c-5.157,1.124-6.246-2.492-6.246-2.492
	c-0.843-2.149-2.059-2.721-2.059-2.721c-1.684-1.155,0.127-1.13,0.127-1.13c1.861,0.131,2.839,1.915,2.839,1.915
	c1.654,2.843,4.339,2.022,5.395,1.545c0.168-1.202,0.647-2.02,1.178-2.486c-4.116-0.468-8.445-2.064-8.445-9.19
	c0-2.029,0.723-3.69,1.908-4.99c-0.19-0.471-0.827-2.361,0.182-4.922c0,0,1.556-0.5,5.098,1.907c1.479-0.413,3.064-0.62,4.641-0.627
	c1.575,0.007,3.159,0.215,4.642,0.627c3.539-2.405,5.095-1.907,5.095-1.907c1.012,2.56,0.374,4.45,0.184,4.922
	c1.188,1.3,1.906,2.961,1.906,4.99c0,7.144-4.336,8.716-8.466,9.178c0.665,0.572,1.257,1.708,1.257,3.442
	c0,2.487-0.022,4.494-0.022,5.103c0,0.497,0.334,1.076,1.275,0.894c7.361-2.463,12.667-9.43,12.667-17.642
	C38.54,10.188,30.24,1.863,20,1.863z"/>
</svg>
