<?xml version="1.0" encoding="utf-8"?>
<!-- Generator: Adobe Illustrator 16.0.4, SVG Export Plug-In . SVG Version: 6.00 Build 0)  -->
<!DOCTYPE svg PUBLIC "-//W3C//DTD SVG 1.1//EN" "http://www.w3.org/Graphics/SVG/1.1/DTD/svg11.dtd">
<svg version="1.1" xmlns="http://www.w3.org/2000/svg" xmlns:xlink="http://www.w3.org/1999/xlink" x="0px" y="0px" width="300px"
	 height="300px" viewBox="0 0 300 300" enable-background="new 0 0 300 300" xml:space="preserve">
<g id="Background">
	<g id="Frame">
	</g>
	<g id="Text">
	</g>
</g>
<g id="White">
	<path id="White_1_" fill="#FFFFFF" d="M268.717,16.553H31.283c-8.137,0-14.73,6.594-14.73,14.73v237.434
		c0,8.135,6.594,14.73,14.73,14.73h127.826V180.092h-34.781v-40.28h34.781v-29.705c0-34.473,21.055-53.244,51.807-53.244
		c14.73,0,27.391,1.097,31.08,1.587v36.026l-21.328,0.01c-16.725,0-19.963,7.947-19.963,19.609v25.717h39.887l-5.193,40.28h-34.693
		v103.355h68.012c8.135,0,14.73-6.596,14.73-14.73V31.283C283.447,23.146,276.852,16.553,268.717,16.553z"/>
</g>
<g id="Blue">
</g>
</svg>
